<svg width="512" height="512" xmlns="http://www.w3.org/2000/svg">

 <g>
  <title>background</title>
  <rect fill="none" id="canvas_background" height="602" width="802" y="-1" x="-1"/>
 </g>
 <g>
  <title>Layer 1</title>
  <g id="svg_1">
   <g id="svg_2">
    <path fill="#38f2af" id="svg_3" d="m467.786,352.977c-11.423,0 -20.682,9.259 -20.682,20.682l0,70.595c0,14.547 -11.835,26.381 -26.381,26.381l-329.445,0c-14.547,0 -26.381,-11.835 -26.381,-26.381l0,-70.595c0,-11.423 -9.26,-20.682 -20.682,-20.682c-11.422,0 -20.682,9.259 -20.682,20.682l0,70.595c0,37.355 30.391,67.746 67.746,67.746l329.445,0c37.356,0 67.746,-30.391 67.746,-67.746l0,-70.595c-0.002,-11.423 -9.261,-20.682 -20.684,-20.682z"/>
   </g>
  </g>
  <g id="svg_4">
   <g id="svg_5">
    <path fill="#38f2af" id="svg_6" d="m364.753,100.186l-94.127,-94.127c-8.077,-8.076 -21.172,-8.077 -29.249,0l-94.127,94.127c-8.077,8.076 -8.077,21.171 0,29.248c8.076,8.077 21.172,8.077 29.248,0l79.502,-79.502l79.503,79.502c4.038,4.038 9.332,6.058 14.625,6.058c5.293,0 10.586,-2.02 14.626,-6.057c8.075,-8.077 8.075,-21.172 -0.001,-29.249z"/>
   </g>
  </g>
  <g id="svg_7">
   <g id="svg_8">
    <path fill="#38f2af" id="svg_9" d="m256,0c-11.423,0 -20.682,9.26 -20.682,20.682l0,329.445c0,11.423 9.26,20.682 20.682,20.682c11.423,0 20.682,-9.259 20.682,-20.682l0,-329.445c0,-11.422 -9.259,-20.682 -20.682,-20.682z"/>
   </g>
  </g>
  <g id="svg_10"/>
  <g id="svg_11"/>
  <g id="svg_12"/>
  <g id="svg_13"/>
  <g id="svg_14"/>
  <g id="svg_15"/>
  <g id="svg_16"/>
  <g id="svg_17"/>
  <g id="svg_18"/>
  <g id="svg_19"/>
  <g id="svg_20"/>
  <g id="svg_21"/>
  <g id="svg_22"/>
  <g id="svg_23"/>
  <g id="svg_24"/>
 </g>
</svg>